<svg width="195" height="86" viewBox="0 0 195 86" fill="none" xmlns="http://www.w3.org/2000/svg">
<path d="M96.9395 7.12109C122.221 7.1211 145.058 11.247 161.532 17.877C169.772 21.1931 176.366 25.114 180.881 29.4102C185.394 33.7038 187.758 38.2964 187.758 43C187.758 47.7036 185.394 52.2962 180.881 56.5898C176.366 60.886 169.772 64.8069 161.532 68.123C145.058 74.753 122.221 78.8789 96.9395 78.8789C71.6579 78.8789 48.8212 74.753 32.3467 68.123C24.1066 64.8069 17.5133 60.886 12.998 56.5898C8.48538 52.2962 6.12109 47.7036 6.12109 43C6.12109 38.2964 8.48538 33.7038 12.998 29.4102C17.5133 25.114 24.1066 21.1931 32.3467 17.877C48.8212 11.247 71.6579 7.12109 96.9395 7.12109Z" fill="#EB8714" stroke="black" stroke-width="2.24242"/>
<path d="M99.7158 10.0107C101.229 10.025 102.733 10.0532 104.227 10.0957L104.195 11.2168C105.702 11.2597 107.198 11.3166 108.682 11.3877L108.734 10.2686C110.248 10.341 111.749 10.4285 113.237 10.5293L113.163 11.6465C114.669 11.7485 116.161 11.8657 117.638 11.9961L117.735 10.8809C119.247 11.0143 120.743 11.162 122.224 11.3242L122.103 12.4375C123.604 12.6021 125.089 12.7812 126.555 12.9746L126.7 11.8643C128.207 12.063 129.695 12.2768 131.162 12.5049L130.99 13.6113C132.486 13.8438 133.96 14.0915 135.411 14.3535L135.609 13.25C137.112 13.5214 138.591 13.8105 140.044 14.1123L139.817 15.207C141.304 15.5157 142.762 15.8403 144.192 16.1797L144.45 15.0889C145.939 15.4422 147.396 15.814 148.821 16.1992L148.529 17.2793C149.994 17.6753 151.425 18.0875 152.817 18.5156L153.146 17.4443C154.62 17.8974 156.053 18.37 157.443 18.8574L157.073 19.9141C158.512 20.4186 159.904 20.9406 161.245 21.4795L161.661 20.4414C163.099 21.0194 164.482 21.6167 165.806 22.2324L165.334 23.2471C166.721 23.8924 168.04 24.5571 169.288 25.2393L169.825 24.2559C171.202 25.0085 172.496 25.783 173.702 26.5791L173.085 27.5146C174.37 28.363 175.549 29.2325 176.615 30.1191L177.331 29.2568C178.551 30.2715 179.635 31.3144 180.575 32.3809L179.736 33.1221C180.74 34.2602 181.56 35.4148 182.192 36.5801L183.176 36.0449C183.925 37.4246 184.439 38.8355 184.702 40.2725L183.602 40.4746C183.725 41.1499 183.788 41.8307 183.788 42.5156C183.788 43.2004 183.725 43.8806 183.602 44.5557L184.702 44.7568C184.439 46.1938 183.925 47.6047 183.176 48.9844L182.192 48.4502C181.56 49.6154 180.74 50.7701 179.736 51.9082L180.576 52.6494C179.636 53.7159 178.551 54.7577 177.331 55.7725L176.615 54.9111C175.549 55.7977 174.37 56.6672 173.085 57.5156L173.702 58.4502C172.496 59.2463 171.202 60.0207 169.825 60.7734L169.288 59.791C168.04 60.4732 166.721 61.1379 165.334 61.7832L165.806 62.7969C164.482 63.4126 163.1 64.0099 161.661 64.5879L161.245 63.5508C159.904 64.0897 158.512 64.6126 157.073 65.1172L157.443 66.1719C156.053 66.6594 154.62 67.1319 153.146 67.585L152.817 66.5146C151.425 66.9427 149.994 67.355 148.529 67.751L148.821 68.8301C147.396 69.2153 145.939 69.5871 144.45 69.9404L144.192 68.8506C142.762 69.19 141.304 69.5145 139.817 69.8232L140.044 70.917C138.591 71.2188 137.112 71.5079 135.609 71.7793L135.411 70.6768C133.96 70.9388 132.486 71.1865 130.99 71.4189L131.162 72.5254C129.695 72.7535 128.207 72.9663 126.7 73.165L126.555 72.0557C125.089 72.249 123.604 72.4282 122.103 72.5928L122.224 73.7051C120.743 73.8673 119.247 74.015 117.735 74.1484L117.638 73.0342C116.161 73.1646 114.669 73.2818 113.163 73.3838L113.237 74.5C111.749 74.6008 110.248 74.6893 108.734 74.7617L108.682 73.6426C107.198 73.7136 105.702 73.7706 104.195 73.8135L104.227 74.9336C102.733 74.9761 101.229 75.0043 99.7158 75.0186L99.7061 73.8984C98.9579 73.9055 98.2069 73.9092 97.4541 73.9092C96.7015 73.9092 95.9511 73.9055 95.2031 73.8984L95.1924 75.0186C93.6789 75.0043 92.175 74.9761 90.6816 74.9336L90.7139 73.8135C89.2073 73.7706 87.7115 73.7136 86.2275 73.6426L86.1738 74.7617C84.66 74.6892 83.1585 74.6009 81.6699 74.5L81.7461 73.3838C80.2406 73.2818 78.7486 73.1646 77.2715 73.0342L77.1729 74.1484C75.6612 74.015 74.1647 73.8673 72.6846 73.7051L72.8066 72.5928C71.3052 72.4282 69.8206 72.249 68.3545 72.0557L68.208 73.165C66.7013 72.9663 65.2135 72.7535 63.7461 72.5254L63.918 71.4189C62.4226 71.1865 60.9482 70.9388 59.4971 70.6768L59.2979 71.7793C57.7953 71.508 56.3173 71.2188 54.8643 70.917L55.0918 69.8232C53.6056 69.5145 52.1467 69.19 50.7168 68.8506L50.457 69.9404C48.9688 69.5872 47.512 69.2152 46.0869 68.8301L46.3799 67.751C44.9147 67.355 43.4843 66.9427 42.0918 66.5146L41.7617 67.585C40.2878 67.1318 38.8552 66.6594 37.4648 66.1719L37.8359 65.1172C36.3969 64.6126 35.0051 64.0897 33.6641 63.5508L33.2471 64.5879C31.8087 64.0099 30.4262 63.4126 29.1025 62.7969L29.5752 61.7832C28.1879 61.1379 26.8678 60.4733 25.6201 59.791L25.083 60.7734C23.7065 60.0207 22.4123 59.2463 21.2061 58.4502L21.8242 57.5156C20.5387 56.6672 19.3602 55.7977 18.2939 54.9111L17.5771 55.7725C16.3569 54.7577 15.2722 53.7159 14.332 52.6494L15.1729 51.9082C14.1696 50.7701 13.3496 49.6154 12.7168 48.4502L11.7314 48.9844C10.9824 47.6049 10.4692 46.1936 10.2061 44.7568L11.3076 44.5557C11.2149 44.0493 11.1562 43.5401 11.1328 43.0283L11.1211 42.5156C11.1211 41.8307 11.1839 41.1499 11.3076 40.4746L10.2061 40.2725C10.4693 38.8357 10.9823 37.4244 11.7314 36.0449L12.7168 36.5801C13.3496 35.4148 14.1696 34.2602 15.1729 33.1221L14.332 32.3799C15.2722 31.3134 16.3569 30.2715 17.5771 29.2568L18.2939 30.1191C19.3602 29.2325 20.5387 28.363 21.8242 27.5146L21.2061 26.5791C22.4123 25.783 23.7065 25.0085 25.083 24.2559L25.6201 25.2393C26.8678 24.557 28.1879 23.8924 29.5752 23.2471L29.1025 22.2324C30.4262 21.6167 31.8087 21.0194 33.2471 20.4414L33.6641 21.4795C35.0051 20.9406 36.3969 20.4186 37.8359 19.9141L37.4648 18.8574C38.8552 18.3699 40.2878 17.8974 41.7617 17.4443L42.0918 18.5156C43.4843 18.0875 44.9147 17.6753 46.3799 17.2793L46.0869 16.1992C47.512 15.8141 48.9688 15.4421 50.457 15.0889L50.7168 16.1797C52.1467 15.8403 53.6056 15.5157 55.0918 15.207L54.8643 14.1123C56.3172 13.8105 57.7953 13.5213 59.2979 13.25L59.4971 14.3535C60.9482 14.0915 62.4226 13.8438 63.918 13.6113L63.7461 12.5039C65.2135 12.2758 66.7013 12.063 68.208 11.8643L68.3545 12.9746C69.8206 12.7812 71.3052 12.6021 72.8066 12.4375L72.6846 11.3242C74.1647 11.162 75.6612 11.0143 77.1729 10.8809L77.2715 11.9961C78.7486 11.8657 80.2406 11.7485 81.7461 11.6465L81.6699 10.5293C83.1584 10.4284 84.66 10.341 86.1738 10.2686L86.2275 11.3877C87.7115 11.3166 89.2073 11.2597 90.7139 11.2168L90.6816 10.0957C92.175 10.0532 93.6789 10.025 95.1924 10.0107L95.2031 11.1318C95.9511 11.1248 96.7015 11.1211 97.4541 11.1211C98.2069 11.1211 98.9579 11.1248 99.7061 11.1318L99.7158 10.0107Z" fill="#EB8714" stroke="black" stroke-width="2.24242" stroke-dasharray="4.48 4.48"/>
<path d="M56.2509 32.003V34.8936C57.2145 33.8049 57.9528 33.0541 58.4658 32.6412C58.9789 32.2157 59.5983 32.003 60.3241 32.003C60.9498 32.003 61.4753 32.2282 61.9008 32.6787C62.3388 33.1167 62.5577 33.6735 62.5577 34.3493C62.5577 35.05 62.3638 35.6381 61.9759 36.1137C61.5879 36.5767 61.0999 36.8082 60.5118 36.8082C60.249 36.8082 59.9612 36.7581 59.6483 36.658C59.3355 36.5579 59.0727 36.4265 58.86 36.2638C58.7349 36.1637 58.6035 36.0573 58.4658 35.9447C58.3282 35.8321 58.203 35.7445 58.0904 35.6819C57.9903 35.6194 57.8777 35.5881 57.7525 35.5881C57.5148 35.5881 57.277 35.6819 57.0393 35.8696C56.814 36.0448 56.5512 36.2951 56.2509 36.6205V45.6865C56.2509 46.3372 56.3385 46.8002 56.5137 47.0755C56.7014 47.3508 56.983 47.526 57.3584 47.6011C57.7463 47.6636 58.4158 47.6949 59.3668 47.6949V48.7273H49.2871V47.6949H49.7939C51.2455 47.6949 51.9713 47.1193 51.9713 45.9681V37.5402C51.9713 36.1011 51.0766 35.1126 49.2871 34.5745V33.9363L55.3312 32.003H56.2509ZM52.5907 37.5402V46.0807C52.5907 46.5061 52.5219 46.8252 52.3842 47.038C52.2466 47.2382 52.0464 47.4572 51.7836 47.6949C52.4969 47.6324 53.0099 47.4447 53.3228 47.1318C53.6356 46.8065 53.792 46.2496 53.792 45.4613V37.5402C53.792 36.464 53.6043 35.6819 53.2289 35.1939C52.8535 34.7059 52.2591 34.4619 51.4457 34.4619C51.3832 34.4619 51.2455 34.4744 51.0328 34.4994C50.8201 34.5244 50.6761 34.537 50.6011 34.537C51.9275 35.1126 52.5907 36.1137 52.5907 37.5402ZM57.5085 34.8936C57.8464 34.8936 58.1843 35.0062 58.5221 35.2315C59.298 35.8446 59.9487 36.1512 60.4742 36.1512C61.1249 36.1512 61.6005 35.732 61.9008 34.8936C61.5504 35.0688 61.2939 35.1564 61.1312 35.1564C60.7558 35.1564 60.3804 35.0312 60.005 34.781C59.5295 34.393 59.1353 34.1991 58.8225 34.1991C58.5221 34.1991 58.0842 34.4306 57.5085 34.8936ZM83.8943 44.0723L84.6451 44.6541C84.082 45.7053 83.4125 46.5687 82.6367 47.2444C81.8609 47.9202 81.0037 48.4207 80.0652 48.7461C79.1392 49.0714 78.1694 49.2341 77.1558 49.2341C75.7793 49.2341 74.4966 48.9025 73.3079 48.2393C72.1316 47.5761 71.1993 46.6188 70.5111 45.3674C69.8228 44.1161 69.4787 42.6958 69.4787 41.1066C69.4787 39.8552 69.6852 38.6789 70.0981 37.5777C70.5236 36.4766 71.1055 35.5068 71.8438 34.6683C72.5946 33.8299 73.458 33.1792 74.4341 32.7162C75.4226 32.2407 76.4738 32.003 77.5875 32.003C78.7137 32.003 79.7836 32.2407 80.7972 32.7162C81.8233 33.1792 82.6367 33.8237 83.2373 34.6496C83.6753 35.2502 83.9882 35.8696 84.1759 36.5078C84.3761 37.1335 84.5325 37.8906 84.6451 38.779H73.3079C73.3579 40.0804 73.5769 41.1816 73.9648 42.0826C74.3653 42.9836 74.8783 43.7094 75.504 44.26C76.1422 44.8106 76.8179 45.2047 77.5312 45.4425C78.2444 45.6803 78.9264 45.7991 79.5771 45.7991C81.1538 45.7991 82.5929 45.2235 83.8943 44.0723ZM80.572 37.5777H81.8859C81.8483 36.1762 81.5605 35.1439 81.0225 34.4806C80.4844 33.8049 79.5834 33.3544 78.3195 33.1292C79.1204 33.4921 79.696 33.9676 80.0464 34.5557C80.3968 35.1313 80.572 36.0136 80.572 37.2023V37.5777ZM73.4205 37.5777H79.9713V36.9583C79.9713 36.2325 79.8399 35.5881 79.5771 35.025C79.3144 34.4494 78.9515 34.0114 78.4885 33.7111C78.038 33.3982 77.5187 33.2418 76.9305 33.2418C75.9795 33.2418 75.1724 33.6673 74.5092 34.5182C73.8459 35.3566 73.4831 36.3764 73.4205 37.5777ZM73.5894 33.88C71.2494 35.732 70.0794 38.1596 70.0794 41.1629C70.0794 43.3402 70.7739 45.1234 72.1629 46.5124C73.5644 47.8889 75.1786 48.5771 77.0056 48.5771C78.0693 48.5771 79.1329 48.3644 80.1966 47.9389C81.2727 47.501 82.18 46.8565 82.9183 46.0056C82.1549 46.4936 81.3728 46.8941 80.572 47.2069C79.7836 47.5072 78.8388 47.6574 77.7377 47.6574C75.8731 47.6574 74.3152 47.0067 73.0638 45.7053C71.825 44.4039 71.2056 42.7083 71.2056 40.6185C71.2056 39.2921 71.4121 38.1033 71.825 37.0522C72.238 36.001 72.8261 34.9436 73.5894 33.88ZM93.8185 44.1849V33.5046H91.8101V32.5473C92.9113 31.7214 93.7372 31.0895 94.2878 30.6515C94.8384 30.201 95.3577 29.7005 95.8457 29.1499C96.3463 28.5993 96.7717 28.0237 97.1221 27.423H98.1169V32.3221H102.772V33.5046H98.1169V44.7292C98.1169 45.5551 98.217 46.1745 98.4173 46.5875C98.6175 46.9879 98.9553 47.1881 99.4309 47.1881C99.8813 47.1881 100.294 47.063 100.67 46.8127C101.058 46.5625 101.527 46.1745 102.077 45.649L102.772 46.381C101.833 47.3446 100.97 48.0641 100.182 48.5396C99.4058 49.0026 98.5111 49.2341 97.4975 49.2341C96.534 49.2341 95.7832 49.0214 95.2451 48.5959C94.707 48.1704 94.3316 47.5948 94.1189 46.869C93.9186 46.1307 93.8185 45.236 93.8185 44.1849ZM95.658 30.3136L94.4192 31.346V43.8095C94.4192 45.4738 94.6319 46.6876 95.0574 47.4509C95.4953 48.2017 96.2712 48.5771 97.3849 48.5771C97.973 48.5771 98.5612 48.4833 99.1493 48.2956C98.0106 48.3331 97.1409 48.0703 96.5402 47.5072C95.9521 46.9316 95.658 45.9806 95.658 44.6541V30.3136ZM116.469 32.003V34.8936C117.433 33.8049 118.171 33.0541 118.684 32.6412C119.197 32.2157 119.816 32.003 120.542 32.003C121.168 32.003 121.693 32.2282 122.119 32.6787C122.557 33.1167 122.776 33.6735 122.776 34.3493C122.776 35.05 122.582 35.6381 122.194 36.1137C121.806 36.5767 121.318 36.8082 120.73 36.8082C120.467 36.8082 120.179 36.7581 119.866 36.658C119.554 36.5579 119.291 36.4265 119.078 36.2638C118.953 36.1637 118.822 36.0573 118.684 35.9447C118.546 35.8321 118.421 35.7445 118.309 35.6819C118.208 35.6194 118.096 35.5881 117.971 35.5881C117.733 35.5881 117.495 35.6819 117.257 35.8696C117.032 36.0448 116.769 36.2951 116.469 36.6205V45.6865C116.469 46.3372 116.557 46.8002 116.732 47.0755C116.92 47.3508 117.201 47.526 117.576 47.6011C117.964 47.6636 118.634 47.6949 119.585 47.6949V48.7273H109.505V47.6949H110.012C111.464 47.6949 112.189 47.1193 112.189 45.9681V37.5402C112.189 36.1011 111.295 35.1126 109.505 34.5745V33.9363L115.549 32.003H116.469ZM112.809 37.5402V46.0807C112.809 46.5061 112.74 46.8252 112.602 47.038C112.465 47.2382 112.264 47.4572 112.002 47.6949C112.715 47.6324 113.228 47.4447 113.541 47.1318C113.854 46.8065 114.01 46.2496 114.01 45.4613V37.5402C114.01 36.464 113.822 35.6819 113.447 35.1939C113.072 34.7059 112.477 34.4619 111.664 34.4619C111.601 34.4619 111.464 34.4744 111.251 34.4994C111.038 34.5244 110.894 34.537 110.819 34.537C112.146 35.1126 112.809 36.1137 112.809 37.5402ZM117.727 34.8936C118.064 34.8936 118.402 35.0062 118.74 35.2315C119.516 35.8446 120.167 36.1512 120.692 36.1512C121.343 36.1512 121.819 35.732 122.119 34.8936C121.769 35.0688 121.512 35.1564 121.349 35.1564C120.974 35.1564 120.598 35.0312 120.223 34.781C119.748 34.393 119.353 34.1991 119.041 34.1991C118.74 34.1991 118.302 34.4306 117.727 34.8936ZM129.603 40.6561C129.603 39.0543 129.978 37.5903 130.729 36.2638C131.493 34.9374 132.525 33.8988 133.826 33.148C135.14 32.3846 136.592 32.003 138.181 32.003C139.733 32.003 141.147 32.3721 142.423 33.1104C143.712 33.8487 144.726 34.8686 145.464 36.17C146.202 37.4714 146.571 38.9167 146.571 40.5059C146.571 41.7197 146.346 42.871 145.896 43.9596C145.458 45.0358 144.844 45.9681 144.056 46.7564C143.28 47.5323 142.386 48.1329 141.372 48.5584C140.358 48.9838 139.27 49.1966 138.106 49.1966C136.542 49.1966 135.109 48.8399 133.808 48.1266C132.519 47.4134 131.493 46.4123 130.729 45.1234C129.978 43.822 129.603 42.3329 129.603 40.6561ZM136.266 48.4645C134.64 47.4759 133.42 46.3059 132.606 44.9545C131.793 43.603 131.386 42.1202 131.386 40.5059C131.386 39.2796 131.58 38.2034 131.968 37.2774C132.356 36.3514 132.863 35.5568 133.488 34.8936C134.127 34.2179 134.921 33.5234 135.872 32.8101C134.608 33.2606 133.551 33.8925 132.7 34.7059C131.849 35.5193 131.223 36.4515 130.823 37.5027C130.423 38.5413 130.222 39.6425 130.222 40.8062C130.222 41.6572 130.354 42.4956 130.617 43.3215C130.879 44.1473 131.261 44.8919 131.762 45.5551C132.275 46.2183 132.907 46.8002 133.657 47.3008C134.408 47.8013 135.278 48.1892 136.266 48.4645ZM134.258 39.5862C134.258 42.2515 134.646 44.3476 135.422 45.8742C136.198 47.3883 137.205 48.1454 138.444 48.1454C139.069 48.1454 139.651 47.8889 140.189 47.3758C140.727 46.8503 141.153 46.0807 141.466 45.0671C141.791 44.041 141.954 42.7896 141.954 41.313C141.954 38.7102 141.603 36.683 140.903 35.2315C140.214 33.7674 139.257 33.0353 138.031 33.0353C136.842 33.0353 135.916 33.5859 135.253 34.6871C134.59 35.7758 134.258 37.4088 134.258 39.5862ZM140.884 47.4885C141.822 46.9754 142.542 46.162 143.043 45.0483C143.543 43.9346 143.793 42.5706 143.793 40.9564C143.793 36.9771 142.567 34.3805 140.114 33.1667C140.99 34.0427 141.616 35.1188 141.991 36.3952C142.379 37.6716 142.573 39.3859 142.573 41.5383C142.573 42.9022 142.429 44.0472 142.142 44.9732C141.866 45.8867 141.447 46.7251 140.884 47.4885Z" fill="#F3D8D3"/>
<path d="M83.4587 57.149H80.8988V56.6341C80.8988 56.1956 80.8726 55.9191 80.8201 55.8047C80.7725 55.6855 80.6485 55.6259 80.4483 55.6259C80.2862 55.6259 80.1647 55.6807 80.0836 55.7904C80.0026 55.8952 79.9621 56.0549 79.9621 56.2695C79.9621 56.5602 79.9811 56.7748 80.0193 56.913C80.0622 57.0465 80.1837 57.1943 80.384 57.3563C80.5889 57.5184 81.0061 57.7544 81.6353 58.0643C82.4743 58.4742 83.0249 58.8604 83.2871 59.2226C83.5493 59.5849 83.6804 60.1117 83.6804 60.8029C83.6804 61.5752 83.5803 62.1592 83.3801 62.5548C83.1798 62.9457 82.8438 63.2484 82.3718 63.4629C81.9047 63.6727 81.3398 63.7776 80.6771 63.7776C79.943 63.7776 79.3138 63.6632 78.7894 63.4343C78.2698 63.2055 77.9122 62.8957 77.7168 62.5048C77.5213 62.1139 77.4236 61.5228 77.4236 60.7314V60.2738H79.9835V60.8744C79.9835 61.3845 80.0145 61.7158 80.0765 61.8684C80.1432 62.0209 80.2719 62.0972 80.4626 62.0972C80.6676 62.0972 80.8106 62.0471 80.8917 61.947C80.9727 61.8421 81.0132 61.6252 81.0132 61.2963C81.0132 60.8434 80.9608 60.5598 80.8559 60.4454C80.7463 60.331 80.1861 59.9925 79.1755 59.43C78.327 58.9533 77.8097 58.5219 77.6238 58.1358C77.4379 57.7449 77.345 57.2825 77.345 56.7485C77.345 55.9906 77.4451 55.4328 77.6453 55.0753C77.8455 54.713 78.184 54.4341 78.6607 54.2387C79.1421 54.0432 79.6999 53.9455 80.3339 53.9455C80.9632 53.9455 81.4971 54.0266 81.9356 54.1886C82.379 54.3459 82.7174 54.5557 82.951 54.8179C83.1894 55.0801 83.3324 55.3232 83.3801 55.5472C83.4325 55.7713 83.4587 56.1217 83.4587 56.5984V57.149ZM91.7849 54.1171L91.7348 54.9537C91.9922 54.6153 92.2759 54.3626 92.5857 54.1958C92.8956 54.0289 93.234 53.9455 93.6011 53.9455C94.0492 53.9455 94.4353 54.0671 94.7595 54.3102C95.0884 54.5485 95.2934 54.825 95.3745 55.1397C95.4555 55.4543 95.496 55.9882 95.496 56.7414V60.7386C95.496 61.6014 95.4436 62.2164 95.3387 62.5834C95.2386 62.9457 95.0288 63.2365 94.7094 63.4558C94.3948 63.6703 94.0135 63.7776 93.5654 63.7776C93.2078 63.7776 92.8765 63.6941 92.5714 63.5273C92.2663 63.3605 91.9875 63.1126 91.7348 62.7836V64.9574H88.846V54.1171H91.7849ZM92.6072 56.8773C92.6072 56.2909 92.5857 55.9358 92.5428 55.8118C92.4999 55.6879 92.3807 55.6259 92.1853 55.6259C91.9946 55.6259 91.8707 55.6974 91.8135 55.8404C91.761 55.9834 91.7348 56.329 91.7348 56.8773V60.8101C91.7348 61.3821 91.7634 61.7397 91.8206 61.8827C91.8778 62.0257 92.0018 62.0972 92.1924 62.0972C92.3784 62.0972 92.4928 62.0328 92.5357 61.9041C92.5833 61.7706 92.6072 61.4512 92.6072 60.9459V56.8773ZM107.39 59.0296H103.651V61.0818C103.651 61.5108 103.682 61.7873 103.743 61.9113C103.805 62.0352 103.925 62.0972 104.101 62.0972C104.32 62.0972 104.466 62.0161 104.537 61.8541C104.613 61.6872 104.652 61.3678 104.652 60.8959V59.6445H107.39V60.3453C107.39 60.9316 107.352 61.3821 107.276 61.6968C107.204 62.0114 107.033 62.3475 106.761 62.705C106.489 63.0625 106.144 63.3319 105.724 63.513C105.309 63.6894 104.787 63.7776 104.158 63.7776C103.548 63.7776 103.009 63.6894 102.542 63.513C102.075 63.3366 101.71 63.0959 101.448 62.7908C101.191 62.4809 101.012 62.1425 100.912 61.7754C100.812 61.4036 100.762 60.8649 100.762 60.1594V57.3921C100.762 56.5626 100.874 55.9095 101.098 55.4328C101.322 54.9514 101.689 54.5843 102.199 54.3316C102.709 54.0742 103.295 53.9455 103.958 53.9455C104.768 53.9455 105.436 54.1004 105.96 54.4103C106.489 54.7154 106.859 55.123 107.069 55.6331C107.283 56.1384 107.39 56.851 107.39 57.7711V59.0296ZM104.494 57.4851V56.7914C104.494 56.3004 104.468 55.9834 104.416 55.8404C104.363 55.6974 104.256 55.6259 104.094 55.6259C103.894 55.6259 103.77 55.6879 103.722 55.8118C103.674 55.931 103.651 56.2575 103.651 56.7914V57.4851H104.494ZM119.12 57.6996H116.396V56.6055C116.396 56.2242 116.365 55.9667 116.303 55.8333C116.241 55.695 116.126 55.6259 115.96 55.6259C115.793 55.6259 115.681 55.6855 115.623 55.8047C115.566 55.9238 115.538 56.1908 115.538 56.6055V61.0818C115.538 61.4203 115.581 61.6753 115.666 61.8469C115.752 62.0138 115.879 62.0972 116.045 62.0972C116.241 62.0972 116.372 62.009 116.439 61.8326C116.51 61.6562 116.546 61.3225 116.546 60.8315V59.7017H119.12C119.115 60.4597 119.087 61.0294 119.034 61.4107C118.987 61.7873 118.827 62.1758 118.555 62.5763C118.288 62.9719 117.938 63.2723 117.504 63.4772C117.07 63.6775 116.534 63.7776 115.895 63.7776C115.08 63.7776 114.434 63.6393 113.957 63.3628C113.481 63.0816 113.142 62.6907 112.942 62.1901C112.747 61.6848 112.649 60.9698 112.649 60.045V57.3492C112.649 56.5436 112.73 55.9358 112.892 55.5258C113.054 55.1158 113.4 54.7511 113.929 54.4318C114.458 54.1076 115.101 53.9455 115.859 53.9455C116.613 53.9455 117.256 54.1052 117.79 54.4246C118.324 54.744 118.679 55.1468 118.856 55.6331C119.032 56.1193 119.12 56.8081 119.12 57.6996Z" fill="black"/>
</svg>
