<svg width="833" height="335" viewBox="0 0 833 335" fill="none" xmlns="http://www.w3.org/2000/svg">
<path d="M416.212 5.07617C530.662 5.07617 634.043 23.7545 708.623 53.7686C745.927 68.7811 775.777 86.5296 796.218 105.979C816.647 125.416 827.349 146.207 827.349 167.5C827.349 188.793 816.647 209.584 796.218 229.021C775.777 248.47 745.927 266.219 708.623 281.231C634.043 311.245 530.662 329.924 416.212 329.924C301.762 329.924 198.381 311.246 123.801 281.231C86.497 266.219 56.6479 248.47 36.207 229.021C15.7781 209.584 5.07617 188.793 5.07617 167.5C5.07617 146.207 15.7781 125.416 36.207 105.979C56.6479 86.5296 86.497 68.7811 123.801 53.7686C198.381 23.7545 301.762 5.07619 416.212 5.07617Z" fill="#EB8714" stroke="black" stroke-width="10.1515"/>
<path d="M428.785 18.156C435.636 18.2207 442.443 18.3512 449.204 18.5437L449.06 23.6169C455.88 23.8112 462.652 24.0697 469.37 24.3914L469.611 19.322C476.463 19.6501 483.261 20.0441 489.999 20.5007L489.657 25.5632C496.472 26.0251 503.226 26.552 509.913 27.1423L510.358 22.0896C517.202 22.6938 523.976 23.363 530.677 24.0974L530.125 29.1414C536.922 29.8864 543.643 30.6975 550.281 31.573L550.944 26.5427C557.765 27.4424 564.499 28.4096 571.142 29.4421L570.363 34.4558C577.133 35.5082 583.807 36.628 590.376 37.8142L591.278 32.822C598.08 34.0502 604.773 35.3465 611.351 36.7126L610.32 41.6824C617.049 43.0801 623.655 44.5489 630.129 46.0857L631.3 41.1482C638.037 42.7473 644.635 44.4194 651.086 46.1628L649.762 51.0623C656.396 52.8551 662.87 54.7227 669.174 56.6609L670.666 51.8093C677.337 53.8603 683.824 55.9934 690.118 58.2L688.44 62.9871C694.955 65.2712 701.254 67.6353 707.325 70.075L709.216 65.3679C715.727 67.9843 721.986 70.6872 727.978 73.4744L725.837 78.0759C732.118 80.9974 738.091 84.006 743.739 87.0945L746.173 82.6414C752.405 86.0486 758.261 89.5592 763.721 93.1628L760.926 97.3982C766.746 101.239 772.08 105.173 776.907 109.186L780.151 105.284C785.675 109.878 790.584 114.596 794.84 119.425L791.035 122.781C795.577 127.934 799.289 133.161 802.154 138.436L806.613 136.014C810.005 142.26 812.332 148.649 813.524 155.154L808.534 156.069C809.094 159.126 809.377 162.205 809.377 165.305C809.377 168.406 809.094 171.485 808.534 174.542L813.525 175.455C812.333 181.96 810.005 188.349 806.613 194.594L802.154 192.174C799.289 197.449 795.577 202.677 791.035 207.83L794.84 211.184C790.584 216.013 785.675 220.731 780.15 225.325L776.907 221.424C772.08 225.437 766.746 229.372 760.926 233.213L763.721 237.447C758.261 241.051 752.404 244.56 746.173 247.968L743.739 243.515C738.09 246.604 732.118 249.612 725.837 252.534L727.978 257.135C721.986 259.922 715.727 262.624 709.215 265.241L707.325 260.535C701.254 262.975 694.955 265.339 688.44 267.623L690.118 272.409C683.824 274.616 677.337 276.749 670.666 278.8L669.174 273.95C662.87 275.888 656.396 277.755 649.763 279.548L651.086 284.446C644.635 286.19 638.037 287.862 631.3 289.461L630.129 284.525C623.655 286.062 617.049 287.53 610.32 288.927L611.352 293.897C604.774 295.263 598.08 296.56 591.278 297.788L590.376 292.796C583.807 293.982 577.133 295.103 570.363 296.155L571.142 301.167C564.499 302.199 557.765 303.168 550.944 304.067L550.281 299.038C543.643 299.913 536.922 300.724 530.125 301.469L530.677 306.512C523.976 307.247 517.202 307.916 510.358 308.52L509.913 303.468C503.226 304.058 496.472 304.585 489.657 305.047L489.999 310.108C483.261 310.565 476.463 310.959 469.611 311.287L469.37 306.219C462.652 306.54 455.88 306.8 449.06 306.994L449.204 312.066C442.443 312.259 435.636 312.388 428.785 312.453L428.738 307.379C425.351 307.411 421.953 307.427 418.544 307.427C415.136 307.427 411.738 307.411 408.351 307.379L408.302 312.453C401.452 312.388 394.644 312.259 387.884 312.066L388.029 306.994C381.209 306.8 374.437 306.54 367.719 306.219L367.476 311.287C360.624 310.959 353.826 310.565 347.088 310.108L347.432 305.047C340.617 304.585 333.863 304.058 327.176 303.468L326.73 308.52C319.886 307.916 313.112 307.247 306.411 306.512L306.963 301.469C300.166 300.724 293.446 299.913 286.808 299.038L286.144 304.067C279.323 303.167 272.589 302.199 265.946 301.167L266.725 296.155C259.955 295.103 253.282 293.982 246.712 292.796L245.81 297.788C239.008 296.56 232.314 295.263 225.736 293.897H225.737L226.769 288.927C220.04 287.53 213.434 286.062 206.959 284.525L205.788 289.461C199.051 287.862 192.452 286.19 186.001 284.446L187.326 279.548C180.692 277.755 174.218 275.888 167.914 273.95L166.422 278.8C159.751 276.749 153.264 274.616 146.97 272.409L148.649 267.623C142.134 265.339 135.835 262.975 129.764 260.535L127.873 265.242C121.361 262.625 115.102 259.922 109.11 257.135L111.25 252.534C104.97 249.613 98.9983 246.604 93.3501 243.515L90.9146 247.968C84.6834 244.56 78.827 241.051 73.3667 237.447L76.1626 233.213C70.3431 229.372 65.009 225.437 60.1821 221.424L56.938 225.325C51.4134 220.731 46.5039 216.013 42.2476 211.184L46.0542 207.83C41.5119 202.677 37.8002 197.449 34.9351 192.174L30.4751 194.594C27.0834 188.349 24.7546 181.961 23.563 175.456L28.5542 174.542C28.0642 171.867 27.786 169.175 27.7241 166.467L27.7114 165.305C27.7114 162.205 27.9942 159.126 28.5542 156.069L23.563 155.154C24.7547 148.649 27.0831 142.26 30.4751 136.014L34.9341 138.436C37.7992 133.161 41.5119 127.934 46.0542 122.781L42.2466 119.425C46.5029 114.596 51.4125 109.878 56.937 105.284L60.1821 109.186C65.009 105.173 70.3431 101.239 76.1626 97.3982L73.3667 93.1628C78.8271 89.5592 84.6833 86.0486 90.9146 82.6414L93.3501 87.0945C98.9983 84.0061 104.97 80.9974 111.25 78.0759L109.11 73.4744C115.102 70.6871 121.361 67.9834 127.872 65.3669L129.764 70.075C135.835 67.6353 142.134 65.2712 148.649 62.9871L146.97 58.2C153.264 55.9934 159.751 53.8603 166.422 51.8093L167.914 56.6609C174.218 54.7227 180.692 52.8551 187.326 51.0623L186.001 46.1628C192.452 44.4194 199.051 42.7473 205.788 41.1482L206.959 46.0857C213.434 44.5489 220.04 43.0801 226.769 41.6824L225.737 36.7126C232.314 35.3465 239.008 34.0502 245.81 32.822L246.711 37.8142C253.281 36.628 259.955 35.5082 266.725 34.4558L265.946 29.4421C272.589 28.4096 279.323 27.4414 286.144 26.5417L286.808 31.573C293.446 30.6975 300.166 29.8863 306.963 29.1414L306.411 24.0974C313.112 23.363 319.886 22.6938 326.73 22.0896L327.176 27.1423C333.863 26.552 340.617 26.0251 347.432 25.5632L347.088 20.5007C353.827 20.0441 360.624 19.6501 367.477 19.322L367.719 24.3914C374.437 24.0697 381.209 23.8112 388.029 23.6169L387.884 18.5437C394.645 18.3512 401.452 18.2207 408.303 18.156L408.351 23.2322C411.738 23.2002 415.136 23.1843 418.544 23.1843C421.953 23.1843 425.351 23.2002 428.738 23.2322L428.785 18.156Z" fill="#EB8714" stroke="black" stroke-width="10.1515" stroke-dasharray="20.3 20.3"/>
<path d="M383.796 223.044L378.584 266H364.373C363.597 260.756 362.701 253.85 361.687 245.283C361.341 249.038 360.856 252.836 360.23 256.677L358.773 266H344.562L339.027 223.044H350.292C350.378 224.166 351.328 232.356 353.141 247.613C353.27 246.06 354.241 237.87 356.054 223.044H366.898L369.553 247.613C369.963 240.449 370.955 232.259 372.531 223.044H383.796ZM435.473 245.283H418.543V254.573C418.543 256.515 418.683 257.767 418.964 258.328C419.244 258.889 419.784 259.17 420.582 259.17C421.575 259.17 422.233 258.803 422.557 258.069C422.902 257.314 423.075 255.868 423.075 253.731V248.067H435.473V251.239C435.473 253.893 435.3 255.933 434.955 257.357C434.631 258.781 433.854 260.303 432.624 261.921C431.394 263.54 429.83 264.759 427.93 265.579C426.053 266.378 423.69 266.777 420.841 266.777C418.079 266.777 415.64 266.378 413.525 265.579C411.41 264.781 409.76 263.691 408.573 262.31C407.407 260.907 406.598 259.375 406.145 257.713C405.692 256.03 405.465 253.591 405.465 250.397V237.87C405.465 234.115 405.972 231.158 406.986 229C408.001 226.82 409.662 225.159 411.972 224.015C414.281 222.85 416.935 222.267 419.935 222.267C423.604 222.267 426.625 222.968 428.999 224.371C431.394 225.752 433.067 227.597 434.016 229.906C434.987 232.194 435.473 235.42 435.473 239.585V245.283ZM422.363 238.291V235.151C422.363 232.928 422.244 231.493 422.007 230.845C421.769 230.198 421.284 229.874 420.55 229.874C419.643 229.874 419.082 230.155 418.867 230.716C418.651 231.255 418.543 232.734 418.543 235.151V238.291H422.363ZM472.745 213.592V225.99C473.824 224.738 475.021 223.81 476.338 223.206C477.676 222.58 479.122 222.267 480.676 222.267C482.467 222.267 484.021 222.547 485.337 223.109C486.653 223.67 487.657 224.457 488.347 225.472C489.038 226.486 489.448 227.479 489.578 228.45C489.729 229.421 489.804 231.493 489.804 234.665V254.023C489.804 257.174 489.588 259.526 489.157 261.08C488.747 262.612 487.765 263.95 486.211 265.094C484.657 266.216 482.812 266.777 480.676 266.777C479.143 266.777 477.708 266.442 476.37 265.773C475.054 265.104 473.845 264.101 472.745 262.763L471.903 266H459.667V213.592H472.745ZM476.726 235.248C476.726 233.025 476.586 231.579 476.305 230.91C476.025 230.219 475.475 229.874 474.655 229.874C473.856 229.874 473.338 230.176 473.101 230.78C472.863 231.363 472.745 232.852 472.745 235.248V253.764C472.745 256.073 472.874 257.551 473.133 258.199C473.414 258.846 473.953 259.17 474.752 259.17C475.572 259.17 476.1 258.835 476.338 258.166C476.597 257.497 476.726 255.889 476.726 253.343V235.248Z" fill="black"/>
<path d="M226.226 123.289V136.374C230.588 131.446 233.931 128.047 236.253 126.178C238.576 124.252 241.38 123.289 244.666 123.289C247.498 123.289 249.877 124.308 251.803 126.348C253.786 128.33 254.778 130.851 254.778 133.91C254.778 137.083 253.899 139.745 252.143 141.898C250.387 143.994 248.178 145.042 245.515 145.042C244.326 145.042 243.023 144.815 241.607 144.362C240.19 143.909 239.001 143.314 238.038 142.578C237.471 142.124 236.876 141.643 236.253 141.133C235.63 140.623 235.064 140.227 234.554 139.943C234.101 139.66 233.591 139.518 233.024 139.518C231.948 139.518 230.872 139.943 229.795 140.793C228.776 141.586 227.586 142.719 226.226 144.192V185.234C226.226 188.18 226.623 190.276 227.416 191.522C228.266 192.769 229.54 193.562 231.24 193.902C232.996 194.185 236.027 194.326 240.332 194.326V199H194.701V194.326H196.995C203.567 194.326 206.852 191.721 206.852 186.509V148.356C206.852 141.841 202.802 137.366 194.701 134.93V132.041L222.063 123.289H226.226ZM209.657 148.356V187.019C209.657 188.945 209.345 190.389 208.722 191.352C208.099 192.259 207.192 193.25 206.003 194.326C209.232 194.043 211.554 193.193 212.97 191.777C214.387 190.304 215.095 187.783 215.095 184.215V148.356C215.095 143.484 214.245 139.943 212.546 137.734C210.846 135.525 208.155 134.42 204.473 134.42C204.19 134.42 203.567 134.477 202.604 134.59C201.641 134.703 200.989 134.76 200.649 134.76C206.654 137.366 209.657 141.898 209.657 148.356ZM231.92 136.374C233.449 136.374 234.979 136.884 236.508 137.904C240.02 140.68 242.966 142.068 245.345 142.068C248.291 142.068 250.444 140.17 251.803 136.374C250.217 137.168 249.056 137.564 248.32 137.564C246.62 137.564 244.921 136.998 243.221 135.865C241.068 134.108 239.284 133.23 237.868 133.23C236.508 133.23 234.525 134.278 231.92 136.374ZM351.369 177.927L354.768 180.561C352.218 185.319 349.188 189.228 345.675 192.287C342.163 195.346 338.283 197.612 334.034 199.085C329.842 200.558 325.452 201.294 320.863 201.294C314.632 201.294 308.825 199.793 303.444 196.791C298.119 193.788 293.898 189.455 290.783 183.79C287.667 178.125 286.109 171.695 286.109 164.501C286.109 158.836 287.044 153.511 288.913 148.526C290.839 143.541 293.473 139.15 296.816 135.355C300.215 131.559 304.123 128.614 308.542 126.518C313.017 124.365 317.776 123.289 322.818 123.289C327.916 123.289 332.759 124.365 337.348 126.518C341.993 128.614 345.675 131.531 348.395 135.27C350.377 137.989 351.794 140.793 352.643 143.682C353.55 146.515 354.258 149.942 354.768 153.964H303.444C303.67 159.855 304.662 164.841 306.418 168.919C308.23 172.998 310.553 176.284 313.386 178.776C316.275 181.269 319.334 183.053 322.563 184.13C325.792 185.206 328.879 185.744 331.825 185.744C338.963 185.744 345.477 183.138 351.369 177.927ZM336.328 148.526H342.277C342.107 142.181 340.804 137.507 338.368 134.505C335.932 131.446 331.853 129.407 326.132 128.387C329.757 130.03 332.363 132.182 333.949 134.845C335.535 137.451 336.328 141.445 336.328 146.826V148.526ZM303.953 148.526H333.609V145.722C333.609 142.436 333.014 139.518 331.825 136.969C330.635 134.363 328.992 132.381 326.896 131.021C324.857 129.605 322.506 128.897 319.843 128.897C315.538 128.897 311.884 130.823 308.882 134.675C305.88 138.47 304.237 143.087 303.953 148.526ZM304.718 131.786C294.125 140.17 288.828 151.16 288.828 164.756C288.828 174.613 291.972 182.685 298.26 188.973C304.605 195.205 311.913 198.32 320.183 198.32C324.999 198.32 329.814 197.357 334.629 195.431C339.501 193.448 343.608 190.531 346.95 186.679C343.494 188.888 339.954 190.701 336.328 192.117C332.759 193.477 328.482 194.157 323.497 194.157C315.057 194.157 308.004 191.211 302.339 185.319C296.731 179.428 293.927 171.752 293.927 162.291C293.927 156.287 294.861 150.905 296.731 146.146C298.6 141.388 301.263 136.601 304.718 131.786ZM396.296 178.436V130.086H387.204V125.753C392.189 122.014 395.928 119.153 398.42 117.17C400.913 115.131 403.264 112.865 405.473 110.373C407.739 107.88 409.665 105.274 411.251 102.555H415.755V124.733H436.828V130.086H415.755V180.901C415.755 184.639 416.208 187.444 417.114 189.313C418.021 191.126 419.55 192.032 421.703 192.032C423.742 192.032 425.612 191.466 427.311 190.333C429.067 189.2 431.192 187.444 433.684 185.064L436.828 188.378C432.58 192.74 428.671 195.998 425.102 198.15C421.59 200.246 417.539 201.294 412.951 201.294C408.589 201.294 405.19 200.331 402.754 198.405C400.318 196.479 398.619 193.873 397.656 190.588C396.749 187.245 396.296 183.195 396.296 178.436ZM404.623 115.641L399.015 120.314V176.737C399.015 184.271 399.978 189.766 401.904 193.222C403.887 196.621 407.399 198.32 412.441 198.32C415.103 198.32 417.766 197.895 420.428 197.046C415.273 197.216 411.336 196.026 408.617 193.477C405.955 190.871 404.623 186.566 404.623 180.561V115.641ZM498.835 123.289V136.374C503.197 131.446 506.54 128.047 508.862 126.178C511.185 124.252 513.989 123.289 517.275 123.289C520.107 123.289 522.486 124.308 524.412 126.348C526.395 128.33 527.386 130.851 527.386 133.91C527.386 137.083 526.508 139.745 524.752 141.898C522.996 143.994 520.787 145.042 518.124 145.042C516.935 145.042 515.632 144.815 514.216 144.362C512.799 143.909 511.61 143.314 510.647 142.578C510.08 142.124 509.485 141.643 508.862 141.133C508.239 140.623 507.673 140.227 507.163 139.943C506.71 139.66 506.2 139.518 505.633 139.518C504.557 139.518 503.481 139.943 502.404 140.793C501.385 141.586 500.195 142.719 498.835 144.192V185.234C498.835 188.18 499.232 190.276 500.025 191.522C500.875 192.769 502.149 193.562 503.849 193.902C505.605 194.185 508.636 194.326 512.941 194.326V199H467.31V194.326H469.604C476.176 194.326 479.461 191.721 479.461 186.509V148.356C479.461 141.841 475.411 137.366 467.31 134.93V132.041L494.672 123.289H498.835ZM482.265 148.356V187.019C482.265 188.945 481.954 190.389 481.331 191.352C480.708 192.259 479.801 193.25 478.612 194.326C481.841 194.043 484.163 193.193 485.579 191.777C486.996 190.304 487.704 187.783 487.704 184.215V148.356C487.704 143.484 486.854 139.943 485.155 137.734C483.455 135.525 480.764 134.42 477.082 134.42C476.799 134.42 476.176 134.477 475.213 134.59C474.25 134.703 473.598 134.76 473.258 134.76C479.263 137.366 482.265 141.898 482.265 148.356ZM504.529 136.374C506.058 136.374 507.588 136.884 509.117 137.904C512.629 140.68 515.575 142.068 517.954 142.068C520.9 142.068 523.053 140.17 524.412 136.374C522.826 137.168 521.665 137.564 520.928 137.564C519.229 137.564 517.53 136.998 515.83 135.865C513.677 134.108 511.893 133.23 510.477 133.23C509.117 133.23 507.134 134.278 504.529 136.374ZM558.293 162.461C558.293 155.21 559.993 148.582 563.391 142.578C566.847 136.573 571.521 131.871 577.412 128.472C583.36 125.016 589.932 123.289 597.126 123.289C604.15 123.289 610.552 124.96 616.33 128.302C622.165 131.644 626.753 136.261 630.096 142.153C633.438 148.044 635.109 154.587 635.109 161.782C635.109 167.277 634.09 172.488 632.05 177.417C630.067 182.289 627.292 186.509 623.723 190.078C620.21 193.59 616.16 196.309 611.571 198.235C606.983 200.161 602.054 201.124 596.786 201.124C589.705 201.124 583.219 199.51 577.327 196.281C571.492 193.052 566.847 188.52 563.391 182.685C559.993 176.794 558.293 170.052 558.293 162.461ZM588.459 197.81C581.094 193.335 575.571 188.038 571.889 181.92C568.207 175.802 566.366 169.089 566.366 161.782C566.366 156.23 567.244 151.358 569 147.166C570.756 142.974 573.05 139.377 575.883 136.374C578.772 133.315 582.369 130.171 586.674 126.942C580.953 128.982 576.166 131.843 572.314 135.525C568.462 139.207 565.629 143.427 563.816 148.186C562.004 152.888 561.097 157.873 561.097 163.141C561.097 166.993 561.692 170.789 562.882 174.528C564.071 178.266 565.799 181.637 568.065 184.639C570.388 187.642 573.248 190.276 576.647 192.542C580.046 194.808 583.983 196.564 588.459 197.81ZM579.366 157.618C579.366 169.684 581.123 179.173 584.635 186.084C588.147 192.939 592.707 196.366 598.316 196.366C601.148 196.366 603.782 195.205 606.218 192.882C608.654 190.503 610.58 187.019 611.996 182.43C613.469 177.785 614.206 172.12 614.206 165.435C614.206 153.652 612.62 144.475 609.447 137.904C606.331 131.276 601.998 127.962 596.446 127.962C591.065 127.962 586.872 130.455 583.87 135.44C580.868 140.368 579.366 147.761 579.366 157.618ZM609.362 193.392C613.611 191.069 616.868 187.387 619.134 182.345C621.4 177.303 622.533 171.129 622.533 163.821C622.533 145.807 616.981 134.052 605.878 128.557C609.844 132.522 612.676 137.394 614.376 143.172C616.132 148.951 617.01 156.711 617.01 166.455C617.01 172.63 616.358 177.813 615.055 182.005C613.809 186.141 611.911 189.936 609.362 193.392Z" fill="#F3D8D3"/>
</svg>
